<svg xmlns="http://www.w3.org/2000/svg" width="960" height="540" viewBox="0 0 960 540" role="img" aria-labelledby="title desc">
  <title id="title">默认课程封面</title>
  <desc id="desc">带有资料卡片与图谱节点的默认封面</desc>
  <defs>
    <linearGradient id="bg" x1="0" x2="1" y1="0" y2="1">
      <stop offset="0" stop-color="#f8fafc"/>
      <stop offset="0.52" stop-color="#eef7f0"/>
      <stop offset="1" stop-color="#e8f0ff"/>
    </linearGradient>
    <linearGradient id="accent" x1="0" x2="1" y1="0" y2="0">
      <stop offset="0" stop-color="#2563eb"/>
      <stop offset="1" stop-color="#059669"/>
    </linearGradient>
  </defs>
  <rect width="960" height="540" fill="url(#bg)"/>
  <path d="M0 410 C170 350 285 470 455 400 C625 330 740 365 960 292 L960 540 L0 540 Z" fill="#dbeafe" opacity="0.76"/>
  <path d="M0 450 C180 400 330 470 500 425 C680 378 760 425 960 365 L960 540 L0 540 Z" fill="#bbf7d0" opacity="0.62"/>
  <g transform="translate(188 120)">
    <rect x="0" y="0" width="292" height="260" rx="22" fill="#ffffff" stroke="#cbd5e1" stroke-width="3"/>
    <rect x="34" y="42" width="224" height="22" rx="11" fill="#2563eb"/>
    <rect x="34" y="88" width="164" height="16" rx="8" fill="#94a3b8"/>
    <rect x="34" y="122" width="198" height="16" rx="8" fill="#cbd5e1"/>
    <rect x="34" y="156" width="142" height="16" rx="8" fill="#cbd5e1"/>
    <rect x="34" y="200" width="98" height="32" rx="16" fill="#dcfce7"/>
  </g>
  <g fill="none" stroke="#334155" stroke-width="4" stroke-linecap="round">
    <path d="M548 204 L636 156 L724 206"/>
    <path d="M636 156 L640 290"/>
    <path d="M548 204 L640 290 L724 206"/>
  </g>
  <g>
    <circle cx="548" cy="204" r="34" fill="#ffffff" stroke="#2563eb" stroke-width="5"/>
    <circle cx="636" cy="156" r="34" fill="#ffffff" stroke="#059669" stroke-width="5"/>
    <circle cx="724" cy="206" r="34" fill="#ffffff" stroke="#7c3aed" stroke-width="5"/>
    <circle cx="640" cy="290" r="40" fill="#ffffff" stroke="url(#accent)" stroke-width="6"/>
  </g>
</svg>
